<?xml version="1.0" encoding="UTF-8"?>
<svg width="67px" height="62px" viewBox="0 0 67 62" version="1.1" xmlns="http://www.w3.org/2000/svg" xmlns:xlink="http://www.w3.org/1999/xlink">
    <!-- Generator: Sketch 50.2 (55047) - http://www.bohemiancoding.com/sketch -->
    <title>Group 7</title>
    <desc>Created with Sketch.</desc>
    <defs></defs>
    <g id="Page-1" stroke="none" stroke-width="1" fill="none" fill-rule="evenodd">
        <g id="Artboard-2-Copy-3" transform="translate(-751.000000, -614.000000)" stroke="#FFFFFF" stroke-width="2">
            <g id="Group-4" transform="translate(200.000000, 616.000000)">
                <g id="Group-11" transform="translate(552.333333, 0.000000)">
                    <g id="Group-7">
                        <g id="Group-6" transform="translate(32.000000, 0.000000)">
                            <polygon id="Rectangle-4" points="0 6.44444444 16 0 32 6.44444444 32 25.7777778 16 32.2222222 0 25.7777778"></polygon>
                            <polyline id="Path-2" points="0.000691492604 6.44444444 16.0006915 12.6337092 32.0006915 6.44444444"></polyline>
                            <path d="M16,12.8888889 L16,32.2222222" id="Path-3"></path>
                        </g>
                        <g id="Group-6-Copy">
                            <polygon id="Rectangle-4" points="0 6.44444444 16 0 32 6.44444444 32 25.7777778 16 32.2222222 0 25.7777778"></polygon>
                            <polyline id="Path-2" points="0.000691492604 6.44444444 16.0006915 12.6337092 32.0006915 6.44444444"></polyline>
                            <path d="M16,12.8888889 L16,32.2222222" id="Path-3"></path>
                        </g>
                        <g id="Group-6-Copy-2" transform="translate(16.000000, 25.777778)">
                            <polygon id="Rectangle-4" points="0 6.44444444 16 0 32 6.44444444 32 25.7777778 16 32.2222222 0 25.7777778"></polygon>
                            <polyline id="Path-2" points="0.000691492604 6.44444444 16.0006915 12.6337092 32.0006915 6.44444444"></polyline>
                            <path d="M16,12.8888889 L16,32.2222222" id="Path-3"></path>
                        </g>
                    </g>
                </g>
            </g>
        </g>
    </g>
</svg>